<svg id="svg" version="1.1" viewBox="0 0 300 300" width="300" height="300" xmlns="http://www.w3.org/2000/svg"><svg xmlns="http://www.w3.org/2000/svg"><defs><clipPath id="clip-1"><rect x="0" y="0" transform="scale(0.19685,0.19685)" width="1524" height="1524" fill="none"/></clipPath><linearGradient x1="170.76201" y1="252.24409" x2="120.31772" y2="235.24606" gradientUnits="userSpaceOnUse" id="color-1"><stop offset="0" stop-color="#d39f81"/><stop offset="1" stop-color="#fdd1b4"/></linearGradient><linearGradient x1="233.51772" y1="149.24783" x2="281.78937" y2="71.97972" gradientUnits="userSpaceOnUse" id="color-2"><stop offset="0" stop-color="#262e30"/><stop offset="1" stop-color="#40484b"/></linearGradient><linearGradient x1="32.07874" y1="45.15039" x2="18.18144" y2="59.93307" gradientUnits="userSpaceOnUse" id="color-3"><stop offset="0" stop-color="#6a6d6e"/><stop offset="1" stop-color="#a3a6a6"/></linearGradient><linearGradient x1="235.10039" y1="41.62815" x2="228.44488" y2="36.22008" gradientUnits="userSpaceOnUse" id="color-4"><stop offset="0" stop-color="#24444e"/><stop offset="1" stop-color="#3b5c5e"/></linearGradient></defs><g clip-path="url(#clip-1)" fill="none" fill-rule="nonzero" stroke="none" stroke-width="1" stroke-linecap="butt" stroke-linejoin="miter" stroke-miterlimit="10" stroke-dasharray="" stroke-dashoffset="0" font-family="none" font-weight="none" font-size="none" text-anchor="none" style="mix-blend-mode: normal"><path d="M82.52205,14.00978c2.76299,0.3485 7.27913,1.16533 9.95138,0.76266c1.78917,-0.26961 3.58189,-2.12833 5.20551,-2.94053c2.27126,-1.13626 4.85335,-1.93033 7.33228,-2.45734c5.09291,-1.08266 10.47618,-1.29498 15.6689,-1.33596c3.9185,-0.03094 7.88287,-0.09317 11.79449,0.15537c9.31555,0.59193 18.67756,2.1124 27.92933,3.35514c2.6498,0.35593 11.72835,2.15789 13.64902,2.01657c2.49429,-0.1835 4.68031,-1.85768 7.19154,-2.23711c3.65177,-0.55175 25.16102,3.89516 30.38937,4.81911c6.02165,1.06421 12.2126,1.83553 18.16535,3.21128c1.68504,0.38965 3.5689,0.9111 5.08268,1.76228c2.7185,1.52677 3.37795,4.49783 5.63386,6.29469c1.43701,1.14528 3.54724,1.39902 5.23425,2.05335c1.42913,0.55394 2.7815,1.40315 4.00787,2.31398c2.25984,1.67874 4.64764,3.92165 6.29528,6.20768c1.20472,1.67126 2.17126,3.6937 3.70472,5.09232c1.83465,1.67362 4.56299,2.04705 6.57283,3.5372c1.83268,1.35866 3.48819,3.05984 5.06496,4.69961c5.79528,6.02362 7.75591,10.42657 11.37795,17.71634c2.65748,5.34961 4.71457,9.09843 5.60827,15.12756c0.51378,3.45965 0.60039,6.97894 0.59449,10.47087c-0.01575,10.50413 -1.34646,17.1563 -4.61024,27.15669c-1.21654,3.72559 -2.48622,7.44291 -4.25787,10.94744c-1.70866,3.38091 -3.89567,6.69173 -6.15945,9.72421c-6.15157,8.24705 -16.13386,17.00846 -26.92717,17.39587c-2.1063,0.07559 -4.26772,0.10276 -6.36614,-0.1061c-2.18898,-0.21772 -4.4626,-0.70846 -6.65945,-0.57461c-2.57087,0.15689 -5.24606,1.07992 -7.83071,1.45748c-1.3563,1.24035 -2.65551,3.69724 -4.05709,5.15551c-3.64764,3.79429 -8.22638,3.4872 -13.10433,3.50138c-9.78543,0.02854 -19.99823,-2.25728 -29.75079,-1.99134c-0.53484,1.04252 -0.77303,1.61437 -1.04193,2.7624c-0.2626,1.09882 -0.38504,2.22657 -0.36417,3.3561c0.06358,2.78012 0.50787,6.78996 0.76555,9.62362l1.02146,11.97461c0.45827,4.9878 0.60197,10.03307 1.20197,15.00157c0.07362,0.61024 0.14232,1.38189 0.49331,1.90157c3.88248,5.75394 12.80925,5.36614 17.3813,14.74409c1.15157,2.36024 1.89764,4.99803 2.80906,7.46457c1.22835,3.32874 2.51181,6.64961 3.42913,10.08071c2.4252,9.07283 3.27559,20.19488 0.15748,29.16929c-1.56299,4.49606 -3.42126,8.45079 -7.94882,10.58661c-3.74941,1.76969 -8.375,2.4685 -12.43996,3.18504c-15.85079,2.79921 -35.60807,4.3563 -51.6313,3.01181c-5.48268,-0.46063 -10.79232,-1.38976 -15.97264,-3.26772c-10.76634,-3.90551 -28.08189,-14.5 -32.98937,-25.13189c-0.98858,-2.14173 -1.63583,-4.47441 -1.99291,-6.80315c-1.1435,-7.45472 -0.51161,-22.78346 2.09882,-29.75787c2.45807,-6.5689 7.21063,-10.48031 13.81535,-12.54528c2.06929,-0.64764 4.33858,-1.02756 6.3002,-1.95472c0.30807,-0.14567 0.33228,-0.38386 0.43602,-0.70276c1.7315,-5.31496 -1.62146,-17.17126 -4.08661,-22.11516c-5.39232,-1.44311 -10.51516,-0.76083 -14.84508,-5.23189c-3.51102,-3.62559 -3.98287,-9.13563 -2.94941,-13.89469c0.31398,-1.44587 2.38661,-4.70394 3.15295,-6.19252c2.8689,-5.57165 5.27894,-11.57244 5.51949,-17.90413c-5.5628,-6.24724 -5.00689,-8.82185 -3.83425,-16.81772c0.18878,-1.2872 0.45256,-3.27559 0.34724,-4.52972c-2.60669,-1.34409 -4.55177,-2.31909 -6.50827,-4.55374c-3.69764,-0.40433 -7.40571,-0.70827 -11.11988,-0.91122c-5.33209,-0.27224 -12.57795,-0.02717 -17.37126,-2.11614c-9.58543,-4.17756 -15.7374,-12.97441 -19.6439,-22.25551c-4.70433,-1.04862 -11.23091,-2.09232 -15.01205,-5.02323c-5.19778,-4.02913 -7.60226,-7.39843 -8.47461,-13.97087c-0.31561,-2.37776 -0.39577,-4.37008 -0.63726,-6.62421c-1.01805,-9.50236 0.25193,-18.69626 5.85589,-26.69173c5.80445,-8.28169 16.5074,-8.85079 25.75248,-10.26437c2.79528,-4.0935 3.53071,-5.91791 7.33898,-9.42382c7.95709,-7.32569 12.51476,-8.67785 22.93248,-8.47327c2.74213,0.58246 8.32303,0.87209 11.32343,1.00372z" fill="#000000"/><path d="M98.5063,20.2374c6.10217,-4.15037 9.06535,-4.55587 16.41319,-4.69872c4.37854,-0.08512 8.88563,-0.16683 13.27205,-0.27518l3.2813,4.42126c1.49705,1.61346 2.52323,3.17882 3.50866,5.13827c0.86142,1.46496 1.69961,2.94331 2.51417,4.43465c1.60925,3.00984 2.53622,5.61358 6.20846,6.69665c0.82461,0.24331 1.83209,0.27283 2.61634,0.4687c4.90315,0.45492 9.79331,1.04035 14.66535,1.75571c3.05413,-0.04764 6.10886,0.05295 9.15315,0.30118c5.41791,0.47205 14.93504,2.40039 20.46142,1.75728c0.32461,-0.0378 0.87126,-0.84587 0.99291,-1.16063c1.23976,-3.2065 0.21516,-8.04469 -0.84193,-11.10138c-0.30787,-0.7811 -0.87264,-1.68091 -1.30059,-2.42343c-2.32618,-2.30453 -2.01772,-3.85689 -5.93543,-5.17559c-1.40728,0.58937 -3.73051,1.27913 -4.30453,-0.74811c1.45571,-3.45215 15.88543,0.61996 19.19469,1.23059c1.29528,0.33071 2.22835,0.69114 2.87992,1.99547c3.76969,7.54114 0.5689,13.28996 -1.85039,20.32165c0.05906,1.10571 1.62205,1.15709 2.70079,1.70394c1.98622,0.66909 4.83071,1.02835 6.92323,1.39094c3.84449,0.66654 7.8189,1.15256 11.64764,1.8748c0.94291,0.425 5.59843,0.81693 6.79134,0.82402l0.61417,-0.20276c2.15157,0.24154 4.29724,0.51024 6.44094,0.80591l0.23819,0.38386l3.08661,0.01339c0.72638,1.68504 1.1063,2.63701 1.63386,4.40236c1.01969,2.9502 1.73228,7.39685 2.16535,10.54449c1.55906,11.30039 1.05906,18.79016 -1.50787,29.73051c-1.72638,6.6565 -5.91929,20.22461 -12.11024,23.82953c-20.63189,12.01457 -44.36594,5.3622 -66.51949,3.80236c-17.70551,-1.24665 -35.60236,-2.49803 -53.34016,-3.18091c-2.20236,-0.08484 -11.18799,-1.80157 -12.40787,-0.61634c0.90846,2.05906 13.00335,2.99587 15.69449,3.21398l-0.37047,0.38504c0.8248,0.63819 1.04232,1.04587 1.1313,2.12972c0.25433,3.10039 -0.31358,7.12953 -0.94469,10.15551l-0.76811,2.10315c0.08937,1.25354 0.00748,1.07756 1.37165,1.3378c-6.79213,0.06299 -12.14488,-3.19823 -17.60276,-6.60138c-0.14193,-6.63051 3.2,-11.35827 -3.96299,-15.35236c-0.8437,-0.47047 -1.35945,-0.75433 -2.27539,-1.11102c12.76614,-1.23012 19.60453,-20.33642 22.09173,-30.95925c1.77874,-7.74449 3.62776,-14.24862 3.91555,-22.33898c0.36535,-10.27953 -0.05709,-21.66437 -5.53504,-30.71358c-1.21339,-2.00453 -2.35236,-4.23209 -3.89114,-5.99252c-1.24114,-1.31791 -2.60886,-2.51083 -4.08327,-3.56142c-0.42165,-0.15157 -1.59843,-0.72913 -2.0561,-0.93917z" fill="#000000"/><path d="M98.5063,20.2374c6.10217,-4.15037 9.06535,-4.55587 16.41319,-4.69872c4.37854,-0.08512 8.88563,-0.16683 13.27205,-0.27518l3.2813,4.42126c1.49705,1.61346 2.52323,3.17882 3.50866,5.13827c0.86142,1.46496 1.69961,2.94331 2.51417,4.43465c1.60925,3.00984 2.53622,5.61358 6.20846,6.69665c0.82461,0.24331 1.83209,0.27283 2.61634,0.4687c4.90315,0.45492 9.79331,1.04035 14.66535,1.75571c3.05413,-0.04764 6.10886,0.05295 9.15315,0.30118c5.41791,0.47205 14.93504,2.40039 20.46142,1.75728c0.32461,-0.0378 0.87126,-0.84587 0.99291,-1.16063c1.23976,-3.2065 0.21516,-8.04469 -0.84193,-11.10138c-0.30787,-0.7811 -0.87264,-1.68091 -1.30059,-2.42343c-2.32618,-2.30453 -2.01772,-3.85689 -5.93543,-5.17559c-1.40728,0.58937 -3.73051,1.27913 -4.30453,-0.74811c1.45571,-3.45215 15.88543,0.61996 19.19469,1.23059c1.29528,0.33071 2.22835,0.69114 2.87992,1.99547c3.76969,7.54114 0.5689,13.28996 -1.85039,20.32165c0.05906,1.10571 1.62205,1.15709 2.70079,1.70394c1.98622,0.66909 4.83071,1.02835 6.92323,1.39094c3.84449,0.66654 7.8189,1.15256 11.64764,1.8748c0.94291,0.425 5.59843,0.81693 6.79134,0.82402l0.61417,-0.20276c2.15157,0.24154 4.29724,0.51024 6.44094,0.80591l0.23819,0.38386l3.08661,0.01339c0.72638,1.68504 1.1063,2.63701 1.63386,4.40236c1.01969,2.9502 1.73228,7.39685 2.16535,10.54449c1.55906,11.30039 1.05906,18.79016 -1.50787,29.73051c-2.6811,0.01398 -11.8189,2.06339 -13.55906,1.47736l-0.16142,-0.21634c0.87992,-4.40512 3.97244,-22.61181 2.59252,-25.72539c-0.30709,-0.69075 -0.58858,-0.83071 -1.24409,-1.10217l-0.06693,-0.13661c-0.01181,-0.04055 -0.02362,-0.0811 -0.03543,-0.12185c-0.08661,-0.31949 -0.12205,-0.52067 -0.08071,-0.84862c0.07874,-0.62283 -0.38386,-1.38976 -0.78346,-1.84272c-2.46654,-2.78937 -21.56693,-3.84626 -26.23622,-4.44272c-2.29331,-0.29291 -4.4935,-1.03445 -6.82067,-1.10669c-2.38602,-0.07402 -4.78012,0.16575 -7.15846,-0.12146c-2.93504,-0.35472 -5.8378,-1.03701 -8.7561,-1.5126c-6.66969,-1.12283 -13.36949,-2.05787 -20.09173,-2.80394c-3.44547,-0.35906 -5.90945,-0.79705 -9.36535,-0.11476c-1.73031,1.54232 -2.27874,2.2685 -2.3374,4.67854c-0.20886,8.60925 -0.68839,17.12972 -2.81457,25.51811c-0.25,0.98583 -0.52677,2.15 -0.67539,3.14882c-1.45886,-0.31319 -4.59665,0.19035 -6.21496,0.22894c-3.07106,0.07343 -12.3124,-0.04429 -14.74528,-0.79311c-0.55827,-0.43701 -0.54587,-0.68425 -0.74823,-1.41339c-0.04724,-0.72756 0.07067,-0.56909 -0.30886,-1.05217c-0.95965,0.21654 -2.31024,3.98228 -2.67421,5.03917c-3.04213,-2.12756 -7.22933,-3.11575 -7.72697,-7.60059c1.77874,-7.74449 3.62776,-14.24862 3.91555,-22.33898c0.36535,-10.27953 -0.05709,-21.66437 -5.53504,-30.71358c-1.21339,-2.00453 -2.35236,-4.23209 -3.89114,-5.99252c-1.24114,-1.31791 -2.60886,-2.51083 -4.08327,-3.56142c-0.42165,-0.15157 -1.59843,-0.72913 -2.0561,-0.93917z" fill="#46767f"/><path d="M183.51535,20.37618c-1.40728,0.58937 -3.73051,1.27913 -4.30453,-0.74811c1.45571,-3.45215 15.88543,0.61996 19.19469,1.23059c1.29528,0.33071 2.22835,0.69114 2.87992,1.99547c3.76969,7.54114 0.5689,13.28996 -1.85039,20.32165c0.05906,1.10571 1.62205,1.15709 2.70079,1.70394c1.98622,0.66909 4.83071,1.02835 6.92323,1.39094c3.84449,0.66654 7.8189,1.15256 11.64764,1.8748c0.94291,0.425 5.59843,0.81693 6.79134,0.82402l0.61417,-0.20276c2.15157,0.24154 4.29724,0.51024 6.44094,0.80591l0.23819,0.38386l3.08661,0.01339c0.72638,1.68504 1.1063,2.63701 1.63386,4.40236c-0.19882,0.36575 -0.10827,0.24213 -0.4311,0.5124c-0.88189,0.00551 -4.22244,-1.24606 -5.53937,-1.57224c-3.05512,-0.725 -6.12992,-1.35079 -9.22441,-1.87618c-6.65945,-1.08917 -13.56693,-1.83465 -20.26772,-2.68071l-15.6561,-2.12303c-5.99272,-0.77067 -12.42854,-2.13819 -18.37854,-2.53622c-11.42205,-0.76437 -22.97028,-0.87264 -34.40374,-1.52402c-2.54705,-0.14508 -10.26594,0.525 -12.10079,-0.10965c-0.33701,-1.04724 -0.56811,-2.29646 -0.79882,-3.3878c0.18091,-0.96791 0.82579,-1.325 1.59213,-1.97598c6.67224,-0.76102 14.9874,-0.27972 22.01713,-0.67579c4.90315,0.45492 9.79331,1.04035 14.66535,1.75571c3.05413,-0.04764 6.10886,0.05295 9.15315,0.30118c5.41791,0.47205 14.93504,2.40039 20.46142,1.75728c0.32461,-0.0378 0.87126,-0.84587 0.99291,-1.16063c1.23976,-3.2065 0.21516,-8.04469 -0.84193,-11.10138c-0.30787,-0.7811 -0.87264,-1.68091 -1.30059,-2.42343c-2.32618,-2.30453 -2.01772,-3.85689 -5.93543,-5.17559z" fill="#b6cbca"/><path d="M183.51535,20.37618c-1.40728,0.58937 -3.73051,1.27913 -4.30453,-0.74811c1.45571,-3.45215 15.88543,0.61996 19.19469,1.23059c1.29528,0.33071 2.22835,0.69114 2.87992,1.99547c3.76969,7.54114 0.5689,13.28996 -1.85039,20.32165c0.05906,1.10571 1.62205,1.15709 2.70079,1.70394c-5.48248,-1.0122 -11.54862,-0.9874 -17.13681,-1.94134c-6.13406,-0.96417 -12.25512,-2.00039 -18.3935,-2.9372c-1.84409,-0.2815 -3.61732,-1.34449 -5.61969,-1.82244c3.05413,-0.04764 6.10886,0.05295 9.15315,0.30118c5.41791,0.47205 14.93504,2.40039 20.46142,1.75728c0.32461,-0.0378 0.87126,-0.84587 0.99291,-1.16063c1.23976,-3.2065 0.21516,-8.04469 -0.84193,-11.10138c-0.30787,-0.7811 -0.87264,-1.68091 -1.30059,-2.42343c-2.32618,-2.30453 -2.01772,-3.85689 -5.93543,-5.17559z" fill="#46767f"/><path d="M183.51535,20.37618c-1.40728,0.58937 -3.73051,1.27913 -4.30453,-0.74811c1.45571,-3.45215 15.88543,0.61996 19.19469,1.23059c0.33661,1.01319 0.70079,2.19075 0.81299,3.2565c0.40354,1.81417 0.75787,3.13996 0.43701,5.00492c-2.81043,0.24685 -6.60787,0.58602 -8.90413,-1.14488c-0.30787,-0.7811 -0.87264,-1.68091 -1.30059,-2.42343c-2.32618,-2.30453 -2.01772,-3.85689 -5.93543,-5.17559z" fill="#788585"/><path d="M189.45079,25.55177c0.13858,-0.31299 0.28839,-0.60217 0.44193,-0.90728c1.97933,-1.2872 6.98327,-0.76122 9.32579,-0.52933c0.40354,1.81417 0.75787,3.13996 0.43701,5.00492c-2.81043,0.24685 -6.60787,0.58602 -8.90413,-1.14488c-0.30787,-0.7811 -0.87264,-1.68091 -1.30059,-2.42343z" fill="#b6cbca"/><path d="M198.40551,20.85866c1.29528,0.33071 2.22835,0.69114 2.87992,1.99547c3.76969,7.54114 0.5689,13.28996 -1.85039,20.32165c0.03937,-0.80728 -0.16142,-1.96752 -0.1811,-2.87933c-0.07283,-3.59252 0.61614,-7.64272 0.40157,-11.17638c0.32087,-1.86496 -0.03346,-3.19075 -0.43701,-5.00492c-0.1122,-1.06575 -0.47638,-2.24331 -0.81299,-3.2565z" fill="#285057"/><path d="M228.1122,48.76673c2.15157,0.24154 4.29724,0.51024 6.44094,0.80591l0.23819,0.38386c-0.76378,0.54075 -0.91339,0.71201 -1.99213,0.6315c-1.65551,-0.12362 -4.14764,-0.37579 -5.30118,-1.6185z" fill="#c5c9c3"/><path d="M134.9815,24.82303c0.86142,1.46496 1.69961,2.94331 2.51417,4.43465c1.60925,3.00984 2.53622,5.61358 6.20846,6.69665c0.82461,0.24331 1.83209,0.27283 2.61634,0.4687c-7.02972,0.39606 -15.34488,-0.08524 -22.01713,0.67579c-0.76634,0.65098 -1.41122,1.00807 -1.59213,1.97598c-0.2063,-3.09764 -3.54311,-10.17087 -5.57776,-12.83012c0.08858,-0.03937 0.40453,-0.17283 0.48583,-0.22224c2.93642,-1.78661 15.13957,-0.3315 17.3622,-1.19941z" fill="#46767f"/><path d="M98.5063,20.2374c6.10217,-4.15037 9.06535,-4.55587 16.41319,-4.69872c4.37854,-0.08512 8.88563,-0.16683 13.27205,-0.27518l3.2813,4.42126c1.49705,1.61346 2.52323,3.17882 3.50866,5.13827c-2.22264,0.86791 -14.42579,-0.5872 -17.3622,1.19941c-0.0813,0.04941 -0.39724,0.18287 -0.48583,0.22224c-1.02205,-1.95177 -2.78858,-4.09488 -4.2748,-5.74094c-1.70256,-1.37492 -4.59882,-3.03039 -6.8,-1.89669c-2.13504,0.20415 -3.29469,0.55917 -5.11988,1.65752c-0.27579,0.41732 -0.25886,0.44469 -0.37638,0.91201c-0.42165,-0.15157 -1.59843,-0.72913 -2.0561,-0.93917z" fill="#b6cbca"/><path d="M98.5063,20.2374c6.10217,-4.15037 9.06535,-4.55587 16.41319,-4.69872c4.37854,-0.08512 8.88563,-0.16683 13.27205,-0.27518l3.2813,4.42126c-2.82303,-0.59045 -17.48228,-2.53951 -18.61417,0.81898c-1.70256,-1.37492 -4.59882,-3.03039 -6.8,-1.89669c-2.13504,0.20415 -3.29469,0.55917 -5.11988,1.65752c-0.27579,0.41732 -0.25886,0.44469 -0.37638,0.91201c-0.42165,-0.15157 -1.59843,-0.72913 -2.0561,-0.93917z" fill="#46767f"/><path d="M106.05866,18.60705c2.20118,-1.1337 5.09744,0.52177 6.8,1.89669c1.48622,1.64606 3.25276,3.78917 4.2748,5.74094c2.03465,2.65925 5.37146,9.73248 5.57776,12.83012c0.23071,1.09134 0.46181,2.34055 0.79882,3.3878c0.12598,2.37421 0.55984,4.79626 0.67461,7.14173c0.40571,8.29843 1.04744,16.95177 -1.24429,25.03996c-0.31634,1.11654 -0.68642,5.25276 -1.86555,5.44213c-0.25669,-0.70984 0.52126,-5.90138 0.71457,-7.23268c2.05433,-14.1498 1.62106,-40.5563 -10.52067,-50.51929c-0.67303,-0.62323 -4.23346,-3.02472 -5.21004,-3.7274z" fill="#000000"/><path d="M100.5624,21.17657c0.11752,-0.46732 0.10059,-0.49469 0.37638,-0.91201c1.8252,-1.09835 2.98484,-1.45337 5.11988,-1.65752c0.97657,0.70268 4.53701,3.10417 5.21004,3.7274c-0.33425,0.33268 -4.22913,2.51024 -4.9311,2.59626c-0.22185,0.02736 -0.87815,-0.3313 -1.69193,-0.19272c-1.24114,-1.31791 -2.60886,-2.51083 -4.08327,-3.56142z" fill="#8cb0b3"/><path d="M110.1563,83.78307c0.49764,4.48484 4.68484,5.47303 7.72697,7.60059c0.36398,-1.05689 1.71457,-4.82264 2.67421,-5.03917c0.37953,0.48307 0.26161,0.32461 0.30886,1.05217c0.20236,0.72913 0.18996,0.97638 0.74823,1.41339c2.43287,0.74882 11.67421,0.86654 14.74528,0.79311c1.61831,-0.03858 4.7561,-0.54213 6.21496,-0.22894c-0.49508,2.03169 -2.52894,9.29685 -1.50354,10.75059c2.73543,3.87756 12.19567,3.69902 16.60295,4.04193c5.82343,0.4315 11.64016,0.94685 17.44882,1.54606c12.6498,1.32736 25.57382,3.56063 38.34744,4.18268c1.95669,0.09528 7.10433,-1.11437 9.07677,-1.94094c2.11614,-1.78248 2.97638,-9.35906 3.90157,-12.04626l0.16142,0.21634c1.74016,0.58602 10.87795,-1.46339 13.55906,-1.47736c-1.72638,6.6565 -5.91929,20.22461 -12.11024,23.82953c-20.63189,12.01457 -44.36594,5.3622 -66.51949,3.80236c-17.70551,-1.24665 -35.60236,-2.49803 -53.34016,-3.18091c-2.20236,-0.08484 -11.18799,-1.80157 -12.40787,-0.61634c0.90846,2.05906 13.00335,2.99587 15.69449,3.21398l-0.37047,0.38504c0.8248,0.63819 1.04232,1.04587 1.1313,2.12972c0.25433,3.10039 -0.31358,7.12953 -0.94469,10.15551l-0.76811,2.10315c0.08937,1.25354 0.00748,1.07756 1.37165,1.3378c-6.79213,0.06299 -12.14488,-3.19823 -17.60276,-6.60138c-0.14193,-6.63051 3.2,-11.35827 -3.96299,-15.35236c-0.8437,-0.47047 -1.35945,-0.75433 -2.27539,-1.11102c12.76614,-1.23012 19.60453,-20.33642 22.09173,-30.95925z" fill="#285057"/><path d="M117.88327,91.38366c0.36398,-1.05689 1.71457,-4.82264 2.67421,-5.03917c0.37953,0.48307 0.26161,0.32461 0.30886,1.05217c-0.78996,2.36417 -1.22913,4.92382 -1.95433,7.08583c-1.91791,5.71772 -6.71299,16.49272 -12.20807,19.29154c-0.7498,0.05 -0.88996,0.08091 -1.5626,-0.23425l-0.19016,-0.34843c0.32776,-0.48858 0.27224,-0.31457 0.59094,-0.58307c5.09685,-4.29705 10.29606,-15.20846 12.34114,-21.22461z" fill="#000000"/><path d="M111.11555,122.08091c0.8248,0.63819 1.04232,1.04587 1.1313,2.12972c0.25433,3.10039 -0.31358,7.12953 -0.94469,10.15551l-0.76811,2.10315l-0.3624,-0.30748c-0.52126,-1.22126 0.10335,-13.16673 0.9439,-14.08091z" fill="#000000"/><path d="M144.73898,91.31713c2.84291,-9.47776 2.34862,-21.03976 3.81083,-30.80374c0.08701,-0.57992 0.34665,-1.2313 0.64134,-1.74016c1.62441,-0.94587 6.82717,-0.05945 8.92461,0.07362c5.79528,0.36752 11.61929,0.94882 17.37303,1.73957c5.31516,0.80394 10.80866,0.72421 16.09035,1.67559c10.24567,1.84547 20.61378,2.76811 30.86969,4.44921c1.15551,0.18937 4.45276,1.40236 5.2815,2.23287l0.06693,0.13661c-0.06299,1.30571 -0.62598,4.05354 -0.81693,5.58878l-1.99606,15.91201c-2.59055,4.58504 -5.63189,6.07756 -10.63386,7.75413c-0.70866,0.2376 -2.98228,0.72067 -3.62205,0.51102l0.56496,-5.63169c5.74803,-2.79547 4.06299,-6.81772 4.52756,-12.15413c0.04134,-3.92067 0.7874,-5.08406 -3.59843,-5.98051c-15.34843,-3.13799 -31.01398,-4.47028 -46.56969,-6.16988c-2.63504,-0.2878 -5.38346,-0.56732 -8.02067,-0.42047c-1.22362,0.06811 -2.12146,1.17421 -2.82047,2.0687c-0.36378,3.11713 -2.91476,13.87736 0.80866,15.3998c4.20945,1.72126 9.90295,1.31752 14.35787,2.9811c-0.06654,1.43799 -0.15866,2.37815 -0.37106,3.80217l-0.32047,0.0628c-3.11594,-1.90571 -5.54488,-2.57343 -7.81181,0.73287c-2.57618,0.00354 -15.07028,-0.99862 -16.73583,-2.22028z" fill="#b55d3f"/><path d="M144.73898,91.31713c1.66555,1.22165 14.15965,2.22382 16.73583,2.22028c2.26693,-3.3063 4.69587,-2.63858 7.81181,-0.73287l0.32047,-0.0628c-0.49213,3.05591 -1.73091,7.17441 -2.38484,10.47579c-5.98976,-1.5185 -16.14567,-1.34075 -22.38878,-2.51476c-0.38622,-0.07264 -1.95669,-0.46063 -2.00669,-0.73996c-0.32697,-1.82441 1.41201,-6.91102 1.9122,-8.64567z" fill="#874a33"/><path d="M210.72835,98.84665c0.63976,0.20965 2.91339,-0.27343 3.62205,-0.51102c5.00197,-1.67657 8.04331,-3.16909 10.63386,-7.75413c-0.75197,6.74252 -1.8622,11.7687 -5.01772,17.77756c-4.83071,0.2376 -6.89764,-0.25177 -11.66732,-1.02224c2.2126,-3.55925 1.48622,-5.75039 2.42913,-8.49016z" fill="#874a33"/><path d="M157.54843,70.52205c5.60295,-0.21772 11.21083,0.7813 16.79449,1.3c13.58169,1.26142 26.95827,3.65886 40.4937,5.2435c-0.5374,2.12224 -0.77756,3.81339 -1.05315,5.94961c-0.24016,1.85472 -0.37008,5.95807 -1.5748,7.26102c-0.56693,0.23091 -1.77756,0.70197 -2.35827,0.64035c-15.22697,-1.6189 -30.60354,-2.95669 -45.75157,-5.16102c-1.73012,-0.25177 -7.43661,-0.98937 -8.21398,-2.15472c-0.95157,-1.42618 0.1813,-10.00079 0.5748,-11.93189c0.19449,-0.77343 0.61299,-0.89685 1.08878,-1.14685z" fill="#2e373a"/><path d="M171.58858,96.13898c0.20335,-1.69823 0.36772,-4.80315 1.46752,-6.02283c1.18209,-0.45138 32.71949,2.74646 35.5187,3.30827c-0.02953,2.44331 -0.19291,4.88327 -0.49016,7.30886c-0.41535,2.18287 -1.00787,6.18858 -3.86614,5.85846c-3.68898,-0.42598 -7.37933,-0.86476 -11.07579,-1.23583l-23.69291,-2.17205c0.78819,-1.91791 1.61417,-5.03031 2.13878,-7.04488z" fill="#edece2"/><path d="M171.58858,96.13898c1.72933,0.11476 3.55945,0.5811 5.2935,0.83799c2.02657,0.3002 4.02992,0.5185 6.06457,0.74055c6.07756,0.63976 12.14764,1.34961 18.20886,2.12953c1.53937,0.19843 5.66732,0.60512 6.92913,0.88622c-0.41535,2.18287 -1.00787,6.18858 -3.86614,5.85846c-3.68898,-0.42598 -7.37933,-0.86476 -11.07579,-1.23583l-23.69291,-2.17205c0.78819,-1.91791 1.61417,-5.03031 2.13878,-7.04488z" fill="#c5c9c3"/><path d="M234.1752,115.91398c0.23622,0.01496 0.94882,0.05394 1.1437,-0.06772c4.35236,-2.70689 8.02559,-6.39783 11.76181,-9.86909c1.20079,-1.11594 3.42126,-4.30354 4.76378,-4.44606l0.25394,0.38209c-0.70866,2.62264 -1.61024,5.24902 -2.44488,7.78189c-2.08465,6.33366 -4.40945,12.90591 -10.67913,16.26457c-3.90945,2.09469 -8.6063,3.98839 -12.7874,5.50925c-0.01181,-1.42047 0.40157,-5.28917 0.02559,-6.20768l-0.38976,-0.12618c-1.51969,0.86142 -1.99803,5.9376 -2.2815,7.74823c-6.8189,3.25098 -10.05512,4.72677 -11.30118,12.79134c-1.37205,5.61535 -2.65551,11.97559 -6.68307,16.33209c-4.22244,-0.09862 -7.99606,-0.57933 -12.13346,-0.98445c-4.35138,-0.42618 -10.60059,-1.40807 -14.89724,-0.65453c-9.89213,1.73484 -7.78819,15.12657 -7.10846,21.85551c0.45728,4.4065 0.86614,8.81791 1.22697,13.23346c0.46437,5.67126 0.51791,11.47835 1.20118,17.09449c0.15453,1.27165 1.02441,3.9252 1.82894,5.1378c1.27323,1.91929 5.7498,5.08071 3.30571,7.90354c-0.52598,0.60827 -2.34685,1.59449 -3.21614,1.79331c-3.99311,0.6752 -8.00118,0.90551 -12.04823,0.92126c-10.36083,0.0374 -20.72539,1.00984 -31.08091,0.42323c-0.64665,-0.0374 -1.32717,-0.05118 -1.96122,-0.1752l-0.28307,-0.04921l-0.9939,-0.19291c-0.64843,-0.53346 -0.57362,-0.72244 -0.9065,-1.56693c0.2565,-1.45079 0.44705,-2.77362 1.56969,-3.80512l2.50217,0.31102c8.25118,-0.00591 19.23937,0.68701 25.62047,-5.60433c1.42992,-1.40945 2.05177,-3.01575 2.0311,-5.01575c-0.05866,-5.6811 -1.41063,-12.09055 -2.36713,-17.71752c-0.54016,-3.17776 -0.88681,-6.99055 -2.4252,-9.85138c-0.82677,-1.5376 -2.05886,-2.70098 -3.61614,-3.48327c-4.72441,-2.37323 -14.64409,-2.49016 -20.26988,-3.29744c-1.53189,-0.21988 -3.90492,-0.26161 -5.02972,-1.45728c-2.45315,-2.60768 1.32343,-22.44508 1.62185,-26.89941c0.14567,-2.1748 -0.00177,-5.37224 -1.55433,-7.07697c-3.25728,-3.57638 -10.05256,-4.77835 -14.66791,-5.04154c-1.36417,-0.26024 -1.28228,-0.08425 -1.37165,-1.3378l0.76811,-2.10315c0.6311,-3.02598 1.19902,-7.05512 0.94469,-10.15551c-0.08898,-1.08386 -0.3065,-1.49154 -1.1313,-2.12972l0.37047,-0.38504c2.86496,-0.01811 10.73386,0.22303 13.40728,0.68209c13.77953,0.49803 27.53898,1.9376 41.30276,2.81594c1.15984,0.1 2.31457,0.25 3.47205,0.3748c14.04016,1.51339 28.76299,4.11811 42.76299,1.22047c6.30906,-1.30591 18.1378,-5.3811 21.74409,-10.8752z" fill="#46767f"/><path d="M212.24016,145.67461c-1.37205,5.61535 -2.65551,11.97559 -6.68307,16.33209c-4.22244,-0.09862 -7.99606,-0.57933 -12.13346,-0.98445c-4.35138,-0.42618 -10.60059,-1.40807 -14.89724,-0.65453c-9.89213,1.73484 -7.78819,15.12657 -7.10846,21.85551c0.45728,4.4065 0.86614,8.81791 1.22697,13.23346c0.46437,5.67126 0.51791,11.47835 1.20118,17.09449c0.15453,1.27165 1.02441,3.9252 1.82894,5.1378c1.27323,1.91929 5.7498,5.08071 3.30571,7.90354c-0.52598,0.60827 -2.34685,1.59449 -3.21614,1.79331c-0.17087,-0.87008 -4.27972,-5.19291 -5.25709,-6.35039c-4.62657,-5.47835 -4.12362,-10.45472 -4.72303,-17.29331l-1.74311,-21.62972c-0.40413,-4.89843 -1.94961,-11.37835 -1.37677,-16.10157c0.64606,-5.32835 4.31594,-12.07717 8.62972,-15.38445c2.42461,-1.85591 5.2187,-3.17106 8.19409,-3.85709c6.35217,-1.43563 17.93287,-0.61969 24.77343,-0.94685c1.3878,-0.06634 6.88386,-0.29724 7.97835,-0.14783z" fill="#285057"/><path d="M111.48602,121.69587c2.86496,-0.01811 10.73386,0.22303 13.40728,0.68209c-6.33504,2.76654 -8.47283,5.33484 -12.25177,11.07795c-0.23091,0.35098 -0.8815,0.46299 -1.33937,0.91024c0.6311,-3.02598 1.19902,-7.05512 0.94469,-10.15551c-0.08898,-1.08386 -0.3065,-1.49154 -1.1313,-2.12972z" fill="#285057"/><path d="M130.06043,222.94094l2.50217,0.31102c1.07579,0.24409 1.36378,0.23622 2.47008,0.23031c-0.72146,2.66929 -1.25256,5.04331 -4.35846,5.07283l-0.28307,-0.04921l-0.9939,-0.19291c-0.64843,-0.53346 -0.57362,-0.72244 -0.9065,-1.56693c0.2565,-1.45079 0.44705,-2.77362 1.56969,-3.80512z" fill="#788585"/><path d="M135.58228,143.82756c-1.46063,-2.16358 -1.33524,-4.73996 -0.82461,-7.2065c0.75886,-3.38622 2.07835,-6.70531 6.14488,-6.60295c6.37264,0.16043 12.68071,0.90354 19.04547,1.22618c2.23189,0.11319 4.87736,0.82087 6.05374,2.89567c1.65039,2.91142 0.31732,8.6189 -1.53504,11.12933c0.29193,0.95118 0.19213,1.82835 -0.26949,2.71654c-0.47992,0.92382 -1.24232,1.34311 -2.21142,1.60335c-3.62264,0.97264 -21.00827,0.17835 -24.89252,-0.6248l-1.23524,-0.47343c-0.41339,-0.51299 -0.73661,-3.88031 -0.27579,-4.66339z" fill="#000000"/><path d="M135.58228,143.82756c0.6315,0.57382 1.91732,1.6937 2.72382,1.72362c4.52953,0.1687 22.92146,2.12185 25.9372,-0.11831l0.22343,-0.16358c0.29193,0.95118 0.19213,1.82835 -0.26949,2.71654c-0.47992,0.92382 -1.24232,1.34311 -2.21142,1.60335c-3.62264,0.97264 -21.00827,0.17835 -24.89252,-0.6248l-1.23524,-0.47343c-0.41339,-0.51299 -0.73661,-3.88031 -0.27579,-4.66339z" fill="#285057"/><path d="M139.98957,132.5376c2.93346,-0.05374 6.84291,0.32126 10.04311,0.56398c2.65315,0.20118 12.3311,0.08169 13.75984,2.42047c1.1622,1.90236 -0.02717,7.25689 -2.40945,8.59941c-6.43091,0.22972 -13.66693,-0.72854 -20.20295,-0.60886c-2.22598,0.04075 -2.75433,-0.37047 -4.15512,-1.98543c0.08996,-2.30531 0.73406,-7.88563 2.96457,-8.98957z" fill="#b55d3f"/><path d="M144.94941,137.44134c2.16713,-0.10748 11.82776,-0.21024 13.59783,0.31398c0.64449,0.71299 0.54921,2.62756 0.04272,3.33406c-3.29685,0.07382 -10.87539,0.10059 -13.96083,-0.45315c-0.38346,-1.47343 -0.51713,-1.87303 0.32028,-3.19488z" fill="#000000"/><path d="M135.85807,148.49094l1.23524,0.47343c-0.77736,3.61004 -1.4687,8.34783 -1.97303,12.03445c-0.50866,3.71929 -0.35335,7.22992 -1.36339,10.99488c-0.69508,0.71043 -0.99862,1.29744 -2.04035,1.05177c-2.79094,-2.79744 1.7063,-21.96024 4.14154,-24.55453z" fill="#8cb0b3"/><path d="M132.96063,174.40748l0.34154,0.09429c1.01201,1.69035 0.15374,2.8376 -1.21949,3.80197l-0.46791,-0.26201c-0.83209,-1.87382 -0.1748,-2.63937 1.34587,-3.63425z" fill="#8cb0b3"/><path d="M182.93976,222.65157c8.29567,3.14764 9.72933,5.25394 14.0878,12.52559c0.43701,0.81102 1.05512,1.88583 1.4311,2.69882c2.22835,4.4626 3.50197,8.5374 3.91732,13.55118c0.05118,0.39764 0.16339,1.1122 0.17323,1.49016c0.35433,2.62992 0.46457,4.58465 0.41929,7.25394c-0.08858,1.14764 -0.14961,2.79331 -0.57874,3.81299c-0.45669,4.25 -3.60236,9.5374 -6.91063,12.24803c-2.8563,2.17913 -7.10512,2.53346 -10.59626,3.22638c-3.95039,0.78346 -7.98091,1.72244 -11.99547,2.12598c-14.11457,1.41732 -29.23701,1.99409 -43.36417,0.73622c-6.42618,-0.57087 -16.01811,-3.80709 -20.22224,-8.72047c-1.28071,-1.60236 -2.52854,-4.37598 -3.07441,-6.33661c-0.37165,-1.0748 -0.71614,-2.15748 -1.03287,-3.24803c-0.43189,-2.25984 -0.57283,-5.26378 -0.55059,-7.5689c2.92835,-0.36024 4.32362,-0.95079 6.50492,-2.83071c2.06063,-1.94291 2.86398,-3.04528 4.37461,-5.33661c2.73917,-5.81693 7.0126,-12.59055 11.84016,-16.99016c1.07835,-0.98425 7.6311,0.21654 9.27539,0.24409c0.51752,0.00787 0.80551,0.62598 1.0811,1.02362l0.38425,0.06299c0.08189,-0.29134 0.07598,-0.33268 0.05394,-0.62598l-0.02165,-0.25984c0.60906,-0.30512 4.34862,0.09055 5.42717,-0.04528c8.86594,-1.11614 24.13248,0.43307 32.25945,-1.99213l0.19154,-0.05906c4.94154,-1.56102 5.31083,-2.00394 6.92579,-6.98622z" fill="#c17655"/><path d="M111.14803,253.61614l-0.1878,0.40354l0.16673,0.18504c2.11063,2.37402 3.43917,5.93504 5.57539,8.58268c4.78346,5.9311 16.46516,8.69882 23.73543,9.19488c15.69646,1.07283 32.69744,-1.24606 48.11083,-4.15945c1.92972,-0.3563 3.79291,-0.87795 5.68976,-1.37795c2.47244,-0.58661 5.02146,-1.15157 7.36004,-2.13976l0.79134,-0.32087c-0.45669,4.25 -3.60236,9.5374 -6.91063,12.24803c-2.8563,2.17913 -7.10512,2.53346 -10.59626,3.22638c-3.95039,0.78346 -7.98091,1.72244 -11.99547,2.12598c-14.11457,1.41732 -29.23701,1.99409 -43.36417,0.73622c-6.42618,-0.57087 -16.01811,-3.80709 -20.22224,-8.72047c-1.28071,-1.60236 -2.52854,-4.37598 -3.07441,-6.33661c-0.37165,-1.0748 -0.71614,-2.15748 -1.03287,-3.24803c-0.43189,-2.25984 -0.57283,-5.26378 -0.55059,-7.5689c2.92835,-0.36024 4.32362,-0.95079 6.50492,-2.83071z" fill="#285057"/><path d="M111.14803,253.61614l-0.1878,0.40354l0.16673,0.18504c2.11063,2.37402 3.43917,5.93504 5.57539,8.58268c4.78346,5.9311 16.46516,8.69882 23.73543,9.19488c15.69646,1.07283 32.69744,-1.24606 48.11083,-4.15945c1.92972,-0.3563 3.79291,-0.87795 5.68976,-1.37795c2.47244,-0.58661 5.02146,-1.15157 7.36004,-2.13976c-0.29134,0.76181 -0.48228,0.65551 -1.21063,1.01575c-2.21654,1.10236 -3.87992,2.14567 -6.28917,2.9626c-9.95315,3.37795 -19.71516,4.7815 -30.2,5.58268c-11.81949,0.90157 -24.53386,1.97835 -35.97835,-2.00591c-1.6,-0.55906 -4.01713,-1.75787 -5.55236,-2.5c-0.42224,-0.95866 0.31634,-0.61811 -0.12776,-1.45866l-0.45591,-0.1063l-0.11969,0.22441c-0.1439,0.26969 -0.20472,0.35433 -0.4,0.59843c-1.34902,0.03937 -4.21457,-1.99016 -5.15138,-2.87205c-0.19843,-0.18898 -0.38898,-0.38386 -0.57165,-0.58661c0.02185,0.45472 0.14528,1.10236 -0.25059,1.41535c-0.70689,0.55709 -2.1565,1.08268 -3.08602,1.18898c-2.76909,0.31693 -4.06142,1.95472 -5.97835,-0.5c-0.37165,-1.0748 -0.71614,-2.15748 -1.03287,-3.24803c-0.43189,-2.25984 -0.57283,-5.26378 -0.55059,-7.5689c2.92835,-0.36024 4.32362,-0.95079 6.50492,-2.83071z" fill="#000000"/><path d="M111.14803,253.61614l-0.1878,0.40354c-1.35807,2.47441 2.86831,9.21063 4.5813,11.13976c0.02185,0.45472 0.14528,1.10236 -0.25059,1.41535c-0.70689,0.55709 -2.1565,1.08268 -3.08602,1.18898c-2.76909,0.31693 -4.06142,1.95472 -5.97835,-0.5c-0.37165,-1.0748 -0.71614,-2.15748 -1.03287,-3.24803c-0.43189,-2.25984 -0.57283,-5.26378 -0.55059,-7.5689c2.92835,-0.36024 4.32362,-0.95079 6.50492,-2.83071z" fill="#46767f"/><path d="M197.02756,235.17717c0.43701,0.81102 1.05512,1.88583 1.4311,2.69882c2.22835,4.4626 3.50197,8.5374 3.91732,13.55118l-0.40157,-0.1378c-1.0374,-0.89764 -4.03543,0.23622 -5.17028,0.68307c-3.87244,1.52165 -7.60591,2.49606 -11.65787,3.44488c-8.51909,1.99606 -17.1628,3.41535 -25.87264,4.25c-5.02402,0.52953 -14.06063,2.49803 -15.4439,-4.41339c-0.91299,-2.91929 0.42421,-9.51181 4.39547,-9.64173c7.34961,-0.23622 43.00866,-2.76181 46.43937,-8.14961l-0.1628,-0.58268c1.11634,-0.73425 1.7878,-0.35827 2.52579,-1.70276z" fill="#b55d3f"/><path d="M197.02756,235.17717c0.43701,0.81102 1.05512,1.88583 1.4311,2.69882c-1.65,-0.14764 -2.04016,0.66929 -3.79409,-0.41339l-0.1628,-0.58268c1.11634,-0.73425 1.7878,-0.35827 2.52579,-1.70276z" fill="#b55d3f"/><path d="M176.01398,229.6378c0.8435,0.05709 2.0378,0.58071 2.50669,1.31102c-0.11083,0.27362 -0.07303,0.35039 -0.37638,0.40354c-3.55925,0.6122 -8.15669,0.92323 -11.63917,1.25787c-3.74921,0.42126 -8.00098,0.95472 -11.69665,1.50197c-6.42402,0.95472 -18.37205,1.4626 -23.14705,6.41535c-4.12185,4.27362 -8.83465,14.62598 -11.05531,20.27362c-1.69843,-3.37795 -4.28386,-8.76772 -5.08346,-12.52165c2.73917,-5.81693 7.0126,-12.59055 11.84016,-16.99016c1.07835,-0.98425 7.6311,0.21654 9.27539,0.24409c0.51752,0.00787 0.80551,0.62598 1.0811,1.02362l0.38425,0.06299c0.08189,-0.29134 0.07598,-0.33268 0.05394,-0.62598l-0.02165,-0.25984c0.60906,-0.30512 4.34862,0.09055 5.42717,-0.04528c8.86594,-1.11614 24.13248,0.43307 32.25945,-1.99213z" fill="url(#color-1)"/><path d="M194.50177,236.87992l0.1628,0.58268c-3.43071,5.3878 -39.08976,7.91339 -46.43937,8.14961c-3.97126,0.12992 -5.30846,6.72244 -4.39547,9.64173c1.38327,6.91142 10.41988,4.94291 15.4439,4.41339c8.70984,-0.83465 17.35354,-2.25394 25.87264,-4.25c4.05197,-0.94882 7.78543,-1.92323 11.65787,-3.44488c1.13484,-0.44685 4.13287,-1.58071 5.17028,-0.68307c-0.82874,0.50394 -1.88583,1.77756 -2.54331,2.09646c-2.7185,1.31693 -6.86575,2.75591 -9.77244,3.44882c-10.93681,2.62008 -21.61516,4.81693 -32.8878,5.64961c-6.34547,0.67323 -13.98248,0.95669 -15.5378,-6.92717c-2.11634,-10.72835 2.91378,-12.09646 11.72283,-12.43307c14.03189,-0.53543 27.93346,-3.22244 41.54587,-6.24409z" fill="#000000"/><path d="M188.54862,267.82283c-0.45846,-0.44685 -0.5126,-0.48228 -0.80906,-1.0374c0.86398,-0.89567 8.61398,-4.24213 10.00059,-5.73622c1.91339,-2.06102 2.94094,-6.11811 4.32677,-8.14173l0.48228,0.00984c0.35433,2.62992 0.46457,4.58465 0.41929,7.25394c-0.08858,1.14764 -0.14961,2.79331 -0.57874,3.81299l-0.79134,0.32087c-2.33858,0.98819 -4.8876,1.55315 -7.36004,2.13976c-1.89685,0.5 -3.76004,1.02165 -5.68976,1.37795z" fill="#e3ac84"/><path d="M194.23839,266.44488c1.57894,-0.92126 3.43091,-1.99213 4.96437,-2.93504c1.3878,-0.85039 2.00394,-2.54134 3.76575,-3.33858c-0.08858,1.14764 -0.14961,2.79331 -0.57874,3.81299l-0.79134,0.32087c-2.33858,0.98819 -4.8876,1.55315 -7.36004,2.13976z" fill="#c17655"/><path d="M52.3498,27.81831c1.02795,-1.08248 2.12087,-2.10118 3.27283,-3.05059c2.75453,-2.23622 6.98839,-4.73366 10.6313,-4.40768c10.48406,0.93799 21.23524,1.83937 31.7063,2.87854c2.84094,0.43642 5.07559,2.95669 6.2815,5.46654c0.16673,0.84035 0.3313,1.53878 0.37067,2.39961c-0.02402,0.35217 -0.01161,0.59449 -0.11811,0.92717c0.36319,0.4313 0.75512,0.92618 1.16102,1.30906c0.4063,-0.38012 0.50453,-0.58327 0.79311,-1.04449c0.53425,0.96752 0.96358,1.81417 1.43976,2.8124c0.37067,1.1685 0.92146,2.72815 1.10039,3.90512c3.91713,16.55177 1.45768,33.83996 -3.11949,50.00472c-3.96004,1.78248 -17.00866,0.69646 -21.59528,-0.14331c-0.44646,-0.08169 -1.12717,-0.59803 -1.48937,-0.89213c0.87146,-2.84134 4.97854,-15.01161 3.575,-17.39823l-0.42815,-0.01398c-0.81713,0.59272 -4.18465,14.46575 -5.61102,17.20295l-0.12382,0.23445c-2.12205,-1.05157 -8.57283,-5.19724 -8.66339,-7.57815c2.54055,-5.71083 3.46791,-12.79665 3.38957,-19.03583c-0.10906,-8.69685 -1.14882,-20.76417 -7.62795,-27.28169c-3.26437,-3.28366 -6.50472,-3.88209 -10.90236,-3.85846c-1.77165,0.67106 -1.69449,0.78071 -3.22854,1.72067c-1.68622,1.68622 -2.95315,2.2315 -5.16634,2.8687c1.17894,-3.36594 1.9939,-4.48445 4.35236,-7.02539z" fill="#c17655"/><path d="M52.3498,27.81831c1.02795,-1.08248 2.12087,-2.10118 3.27283,-3.05059c2.75453,-2.23622 6.98839,-4.73366 10.6313,-4.40768c10.48406,0.93799 21.23524,1.83937 31.7063,2.87854c2.84094,0.43642 5.07559,2.95669 6.2815,5.46654c0.16673,0.84035 0.3313,1.53878 0.37067,2.39961c-0.02402,0.35217 -0.01161,0.59449 -0.11811,0.92717c-6.0565,-3.0815 -12.5748,-3.23169 -19.19508,-3.69173c-2.21929,-0.15433 -3.46929,-0.23799 -5.53366,-1.19567c-0.57835,-1.10413 -1.37008,-0.99547 -2.43878,-0.81181c-2.48484,1.84035 -7.29114,-6.44331 -17.08642,2.92815c-2.13012,-0.18957 -1.95748,0.5876 -3.84803,0.9935c-1.77165,0.67106 -1.69449,0.78071 -3.22854,1.72067c-1.68622,1.68622 -2.95315,2.2315 -5.16634,2.8687c1.17894,-3.36594 1.9939,-4.48445 4.35236,-7.02539z" fill="#efbb9c"/><path d="M47.99744,34.8437c1.17894,-3.36594 1.9939,-4.48445 4.35236,-7.02539c0.19193,0.52106 0.41535,0.81929 0.05669,1.38701c-0.62126,0.98307 -1.54744,2.95728 -2.28386,3.72441l-0.28996,-0.10295c-0.10728,-1.13248 0.72382,-1.06831 0.44764,-1.63209c-0.71772,0.76654 -1.17362,1.7065 -1.15177,2.76476c1.6876,-0.29252 1.8689,-1.44114 4.03524,-1.98445c-1.68622,1.68622 -2.95315,2.2315 -5.16634,2.8687z" fill="#dd9876"/><path d="M97.96024,23.23858c2.84094,0.43642 5.07559,2.95669 6.2815,5.46654c0.16673,0.84035 0.3313,1.53878 0.37067,2.39961c-1.1622,-2.11535 -3.10492,-4.08445 -4.2315,-6.31575c-0.25571,-0.5065 -1.84488,-1.21457 -2.42067,-1.55039z" fill="#dd9876"/><path d="M79.76555,27.14449c2.06437,0.95768 3.31437,1.04134 5.53366,1.19567c6.62028,0.46004 13.13858,0.61024 19.19508,3.69173c0.36319,0.4313 0.75512,0.92618 1.16102,1.30906l0.01634,0.7311c-0.66142,0.60433 -1.3313,0.30748 -2.35689,0.39567c-2.65236,-0.01831 -5.47165,-0.32146 -8.13937,-0.34016c-2.3189,-0.01614 -4.74665,0.17185 -7.06713,0.3248c-1.38622,-0.03661 -3.88248,-0.62539 -4.45591,0.79016c-0.13858,-2.51201 -2.65866,-6.03996 -3.88681,-8.09803z" fill="#c17655"/><path d="M77.32677,26.33268c1.0687,-0.18366 1.86043,-0.29232 2.43878,0.81181c1.22815,2.05807 3.74823,5.58602 3.88681,8.09803c0.2315,0.62126 0.52815,1.53996 0.87185,2.07559l0.32756,1.10374c2.21732,6.45728 4.42382,19.5748 2.72303,26.76299c-0.10098,0.42677 -0.54291,0.69331 -0.95571,0.83937c-0.11437,-0.07067 -0.22894,-0.14154 -0.34331,-0.2122c-0.31929,-1.62205 -0.2874,-5.28917 -0.3939,-6.77185c-0.53917,-7.51693 -1.34272,-15.68327 -4.11437,-22.72756c-1.32421,-3.36575 -3.08898,-6.57343 -4.44075,-9.97992z" fill="#000000"/><path d="M106.44843,32.29646c0.53425,0.96752 0.96358,1.81417 1.43976,2.8124c0.37067,1.1685 0.92146,2.72815 1.10039,3.90512l-0.26516,0.4689c-0.50315,0.05768 -0.47087,0.03819 -0.93209,-0.18858c-6.4622,-3.0872 -16.07913,-2.39331 -22.93957,-0.87244l-0.32756,-1.10374c-0.3437,-0.53563 -0.64035,-1.45433 -0.87185,-2.07559c0.57343,-1.41555 3.06969,-0.82677 4.45591,-0.79016c2.32047,-0.15295 4.74823,-0.34094 7.06713,-0.3248c2.66772,0.0187 5.48701,0.32185 8.13937,0.34016c1.02559,-0.08819 1.69547,0.20866 2.35689,-0.39567l-0.01634,-0.7311c0.4063,-0.38012 0.50453,-0.58327 0.79311,-1.04449z" fill="#efbb9c"/><path d="M106.82598,35.16594l1.0622,-0.05709c0.37067,1.1685 0.92146,2.72815 1.10039,3.90512l-0.26516,0.4689c-0.50315,0.05768 -0.47087,0.03819 -0.93209,-0.18858c-0.37441,-1.66417 -0.73858,-2.18248 -0.96535,-4.12835z" fill="#e3ac84"/><path d="M83.65236,35.24252c0.57343,-1.41555 3.06969,-0.82677 4.45591,-0.79016c-1.78051,0.31752 -2.33937,0.2939 -3.16831,2.01949l-0.41575,0.84626c-0.3437,-0.53563 -0.64035,-1.45433 -0.87185,-2.07559z" fill="#e3ac84"/><path d="M106.44843,32.29646c0.53425,0.96752 0.96358,1.81417 1.43976,2.8124l-1.0622,0.05709c-0.99882,-0.58878 -2.32303,-0.58268 -3.51122,-0.69823c1.02559,-0.08819 1.69547,0.20866 2.35689,-0.39567l-0.01634,-0.7311c0.4063,-0.38012 0.50453,-0.58327 0.79311,-1.04449z" fill="#cd8768"/><path d="M94.07303,133.67598c6.52126,3.43701 11.29094,5.39409 18.62421,6.53189c4.2939,0.66614 11.93957,1.0998 14.02874,5.3185c0.9185,1.85453 -0.46811,2.82598 -0.59213,4.77933c-0.09134,1.43937 -0.10866,2.84528 -0.17992,4.28346c-0.60807,4.70413 -1.01102,10.36555 -2.43701,14.85098c-0.66496,4.20807 -0.43287,9.22992 4.61043,10.30138c0.65394,0.13898 1.46614,0.24311 2.0937,0.41476c3.4687,0.46476 6.92559,0.9563 10.40059,1.38268c3.00217,0.3685 6.45728,0.51299 9.32028,1.50571c1.07677,0.37343 2.1624,0.9876 2.86555,1.90374c2.66417,3.47165 5.13307,24.54961 4.84075,29.45512c-1.78937,2.64961 -6.21201,5.04331 -9.18602,5.48425c-2.9622,0.44094 -12.44508,1.34843 -15.07854,0.80118l-1.6126,0.00787c-0.8876,-0.03937 -2.87736,-0.39173 -3.83406,-0.53346c-6.15965,-1.56693 -10.90276,-3.58858 -16.6128,-6.2874c2.02579,-7.54134 0.34902,-22.81693 -4.38799,-29.1624c4.5876,-1.75531 6.63799,-2.54764 6.72992,-7.92303c0.15748,-9.22795 2.5561,-18.6563 3.79606,-27.76732c-0.2372,-2.39409 -2.89055,-4.02126 -4.97717,-4.52323c-4.23563,-1.01909 -8.2372,-1.08701 -12.38642,-2.60098c-4.64252,-1.69409 -5.52165,-3.61417 -6.02559,-8.22303z" fill="#2e373a"/><path d="M130.22106,180.1563c3.4687,0.46476 6.92559,0.9563 10.40059,1.38268c3.00217,0.3685 6.45728,0.51299 9.32028,1.50571c1.07677,0.37343 2.1624,0.9876 2.86555,1.90374c2.66417,3.47165 5.13307,24.54961 4.84075,29.45512c-1.78937,2.64961 -6.21201,5.04331 -9.18602,5.48425c-2.9622,0.44094 -12.44508,1.34843 -15.07854,0.80118c0.82205,-0.02559 1.49035,-0.05906 2.31378,-0.1378c0.02795,-0.07874 0.05571,-0.15748 0.08366,-0.23622c1.4624,-11.39961 -0.29508,-23.07087 -3.62047,-33.99429c-0.6626,-2.17618 -1.15571,-4.52047 -1.93957,-6.16437z" fill="#363f41"/><path d="M125.13819,179.08346c-0.48189,-0.67264 -0.90177,-1.3874 -1.25472,-2.13583c-0.94075,-1.95807 -1.22539,-5.96161 -0.5185,-7.92795l0.15197,0.42047c-0.66496,4.20807 -0.43287,9.22992 4.61043,10.30138c0.65394,0.13898 1.46614,0.24311 2.0937,0.41476c0.78386,1.6439 1.27697,3.98819 1.93957,6.16437c3.32539,10.92343 5.08287,22.59469 3.62047,33.99429c-0.02795,0.07874 -0.05571,0.15748 -0.08366,0.23622c-0.82343,0.07874 -1.49173,0.1122 -2.31378,0.1378l-1.6126,0.00787c-1.32815,-0.52362 -0.44685,-2.16732 -0.40709,-3.37795c0.29902,-9.10236 -0.07264,-22.12933 -4.50984,-30.10748c0.48307,0.38386 0.95591,1.16732 1.29744,1.71201l0.12421,0.20059c0.60197,-1.5124 -0.7061,-1.95335 -0.94134,-3.5752l0.5187,0.01929c1.12323,-1.28091 1.11831,-0.39291 1.58602,-1.11909c-0.44429,-0.40787 -1.92028,-0.72677 -2.55118,-0.8813c-0.6937,-0.85413 -1.47028,-2.10276 -1.04705,-3.20118l0.61181,-0.23917c1.62087,0.09547 1.77756,0.98583 2.93307,1.69429c0.68465,-0.34626 0.42815,-0.10236 0.8185,-0.73583l-0.13327,-0.45413c-0.54429,-0.3252 -3.81024,-1.06732 -4.93287,-1.54823z" fill="#555f61"/><path d="M127.93701,220.16339c-0.64783,-1.59252 0.2122,-7.28346 0.05039,-10.21063c-0.43976,-7.96654 -0.02776,-18.74902 -6.97047,-24.35846c-0.08425,-0.06811 -2.50846,-0.7435 -2.96693,-0.95787c0.1748,-1.14035 1.05394,-2.68406 1.41299,-3.87933c0.37283,-1.24094 0.72441,-7.95295 1.46594,-8.41752l1.4128,0.37106l-0.01988,0.2563l-0.73209,0.00965c-1.46181,0.84862 -1.07421,3.32559 -1.32028,4.8685c-0.37185,2.33071 -0.99449,4.2815 -1.74272,6.50138c0.81496,1.14783 7.43228,0.51693 8.32736,2.86496c4.4372,7.97815 4.80886,21.00512 4.50984,30.10748c-0.03976,1.21063 -0.92106,2.85433 0.40709,3.37795c-0.8876,-0.03937 -2.87736,-0.39173 -3.83406,-0.53346z" fill="#363f41"/><path d="M33.12028,39.45866c4.37402,-0.70453 16.89409,-3.40177 20.30315,-1.45748c1.6252,1.12047 2.14961,1.64272 3.27362,3.2622c1.29272,1.48543 2.32756,4.7565 3.30315,6.31102c0.4128,1.42185 0.80118,2.85079 1.16496,4.28602c1.07756,9.5435 0.73976,17.27244 -2.97795,26.3624c-2.53051,5.93622 -7.49232,12.97992 -14.7752,10.43701c-5.16024,-1.80177 -12.39508,-2.72598 -17.26181,-5.06831c0.39193,-0.93071 1.5872,-1.25315 2.61496,-2.51929c2.97677,2.45315 6.38071,-5.59075 7.30059,-7.60787c2.00138,-7.00335 1.82835,-11.01457 2.12894,-17.81024c-0.10551,-1.19488 -0.14311,-1.66811 -0.47264,-2.80748c-0.95846,-3.99213 -1.61102,-5.48012 -3.60433,-8.90472l-0.86535,-0.95295c-0.79272,-0.44449 -1.80256,-0.89744 -2.63583,-1.29606c0.71496,-0.84646 1.6498,-1.27224 2.50374,-2.23425z" fill="#788585"/><path d="M28.76516,81.07224c2.97677,2.45315 6.38071,-5.59075 7.30059,-7.60787c0.12343,0.13406 0.24705,0.26791 0.37047,0.40197c2.57244,0.59449 5.1935,0.92933 7.79094,1.39823c3.3998,0.61398 6.78937,1.29862 10.16713,2.0248c1.26732,0.27244 2.56634,0.50906 3.79291,0.93346c-2.53051,5.93622 -7.49232,12.97992 -14.7752,10.43701c-5.16024,-1.80177 -12.39508,-2.72598 -17.26181,-5.06831c0.39193,-0.93071 1.5872,-1.25315 2.61496,-2.51929z" fill="#555f61"/><path d="M33.12028,39.45866c4.37402,-0.70453 16.89409,-3.40177 20.30315,-1.45748c1.6252,1.12047 2.14961,1.64272 3.27362,3.2622c1.29272,1.48543 2.32756,4.7565 3.30315,6.31102c-1.09449,-0.01161 -6.54567,1.20039 -7.9498,1.53307c-4.52579,1.07185 -9.55039,1.27874 -13.97618,2.35886c-0.42638,0.46496 -0.30079,0.62913 -0.35217,1.38031c-0.95846,-3.99213 -1.61102,-5.48012 -3.60433,-8.90472l-0.86535,-0.95295c-0.79272,-0.44449 -1.80256,-0.89744 -2.63583,-1.29606c0.71496,-0.84646 1.6498,-1.27224 2.50374,-2.23425z" fill="#788585"/><path d="M33.12028,39.45866c4.37402,-0.70453 16.89409,-3.40177 20.30315,-1.45748c1.6252,1.12047 2.14961,1.64272 3.27362,3.2622c-1.86575,1.26969 -17.79587,4.07303 -20.75118,3.3815c-0.56673,-0.13268 -1.26496,-0.43937 -1.82815,-0.70295l-0.86535,-0.95295c-0.79272,-0.44449 -1.80256,-0.89744 -2.63583,-1.29606c0.71496,-0.84646 1.6498,-1.27224 2.50374,-2.23425z" fill="#c5c9c3"/><path d="M33.12028,39.45866c4.37402,-0.70453 16.89409,-3.40177 20.30315,-1.45748c-4.24843,2.88031 -18.57264,2.17205 -20.17106,4.9878c-0.79272,-0.44449 -1.80256,-0.89744 -2.63583,-1.29606c0.71496,-0.84646 1.6498,-1.27224 2.50374,-2.23425z" fill="#788585"/><path d="M37.72205,52.84665c0.05138,-0.75118 -0.07421,-0.91535 0.35217,-1.38031c4.42579,-1.08012 9.45039,-1.28701 13.97618,-2.35886c1.40413,-0.33268 6.85531,-1.54469 7.9498,-1.53307c0.4128,1.42185 0.80118,2.85079 1.16496,4.28602c-0.1187,0.49665 -0.09429,0.91083 -0.59528,1.06004c-3.97303,1.18327 -8.84213,0.1626 -13.30413,0.84882c-2.54646,0.39173 -7.75098,1.83661 -9.07106,1.88484c-0.10551,-1.19488 -0.14311,-1.66811 -0.47264,-2.80748z" fill="#c5c9c3"/><path d="M257.77953,50.78327c10.21063,5.00354 14.53937,12.76161 18.83071,22.80807c0.80315,1.88287 2.94685,4.55984 3.4311,6.35315c2.90748,10.78524 2.0748,28.14665 -2.0374,38.17913c-0.90354,5.12972 -8.14961,17.96654 -11.47835,22.47402c-1.37205,1.8561 -4.17126,4.59213 -5.99409,6.09114c-7.5315,6.19744 -14.08465,6.58642 -23.23425,5.76909c2.23622,-1.73642 4.84055,-3.4315 7.15157,-5.10571c21.65945,-15.6935 31.16732,-46.41398 22.83661,-71.74744c-1.79528,-5.45591 -4.42717,-10.32894 -6.35039,-15.69941c-0.81496,-2.99783 -1.66339,-6.42756 -3.15551,-9.12205z" fill="url(#color-2)"/><path d="M257.77953,50.78327c10.21063,5.00354 14.53937,12.76161 18.83071,22.80807c0.80315,1.88287 2.94685,4.55984 3.4311,6.35315c2.90748,10.78524 2.0748,28.14665 -2.0374,38.17913c-0.41929,0.43661 -0.60827,0.64547 -1.17323,0.54626c-0.52165,-1.17067 0.35039,-6.59744 0.47638,-8.2313c0.46457,-6.05374 0.62008,-12.12717 0.4685,-18.19665c-0.06496,-2.66949 -0.11614,-5.37205 -0.63386,-8.00728c-0.44882,-2.28701 -1.49803,-2.7685 -3.45669,-3.97677c0.09646,-5.91476 -2.40551,-14.98484 -7.53543,-18.37224c-1.2874,-0.85 -3.69488,-1.43996 -5.21457,-1.98031c-0.81496,-2.99783 -1.66339,-6.42756 -3.15551,-9.12205z" fill="#555f61"/><path d="M130.61299,15.04482c2.46614,0.3188 4.96102,0.37498 7.40295,0.73443c5.66929,0.83445 11.31043,1.89002 16.99173,2.65368c9.2872,1.42593 18.27795,2.28774 27.59646,3.25959c2.0376,1.48287 2.53386,2.17126 3.99114,4.20335c0.71437,1.03248 0.88366,1.39528 1.3935,2.55295c1.5065,3.81004 1.79154,5.46634 1.29665,9.54154c-3.8061,-0.37244 -7.60531,-0.81201 -11.39587,-1.3185c-2.42087,-0.33386 -5.40177,-0.82677 -7.88406,-1.02776c-0.35984,-0.02913 -1.24035,0.65059 -1.25453,0.65c-5.75531,-0.2752 -21.43169,-2.92382 -26.09311,-3.51043c-1.58957,-2.73031 -3.14823,-5.47854 -4.67598,-8.2439c-0.68012,-0.84291 -2.23898,-3.4498 -2.89193,-4.4878c-1.51988,-2.07262 -2.61201,-3.19309 -4.47697,-5.00715z" fill="#b55d3f"/><path d="M135.08996,20.05197c0.32677,-0.51262 0.3935,-0.52055 0.93563,-0.83876c-0.42913,-0.69866 -0.71594,-1.06624 -1.21654,-1.69197c0.69921,0.06996 1.02303,0.82159 1.31811,1.41616c1.20768,0.875 3.30039,1.00413 4.79547,1.24449c6.18799,0.99488 12.11634,2.19272 18.37972,2.86004c1.49843,0.15965 9.42126,1.39587 7.23976,4.70551c-0.27106,0.41122 -1.40787,0.47008 -1.85059,0.43366c-7.27894,-1.02008 -14.61988,-1.57185 -21.89862,-2.57126c-1.66063,-0.22795 -3.20866,-0.74331 -4.81102,-1.07008c-0.68012,-0.84291 -2.23898,-3.4498 -2.89193,-4.4878z" fill="#dd9876"/><path d="M175.42264,28.82894c-0.37953,-0.83465 -1.20886,-2.17106 -0.79823,-3.02421c1.55079,-0.64232 9.32835,-0.35709 10.80453,0.44626l1.16634,-0.35512c0.71437,1.03248 0.88366,1.39528 1.3935,2.55295l-0.71772,0.47283c-3.45079,0.26083 -8.47913,0.21437 -11.84843,-0.09272z" fill="#dd9876"/><path d="M185.42894,26.25098l1.16634,-0.35512c0.71437,1.03248 0.88366,1.39528 1.3935,2.55295l-0.71772,0.47283c-1.10138,-0.59193 -0.56811,-1.42598 -1.84213,-2.67067z" fill="#cd8768"/><path d="M90.05335,230.86614c0.35827,-1.42126 0.87992,-2.79331 1.55413,-4.09252c1.49508,-2.88189 3.90748,-5.98228 7.13996,-6.81102c1.06398,-0.27362 6.19409,-1.51772 7.01417,-1.0748c-0.14941,0.91535 -0.28602,1.17913 0.30472,2.00394c1.08524,1.51575 2.48898,2.68307 4.09173,3.66142c4.27697,2.61024 8.96594,4.4252 13.87913,5.31496l0.7998,0.12598l0.16122,0.24409c-0.63839,0.73622 -1.19705,0.8189 -1.92244,1.42126c-0.93406,0.86811 -2.40433,2.2126 -3.1376,3.23228c-3.72402,5.14764 -6.01319,12.33465 -10.41083,16.85827c-6.32008,6.49803 -16.24429,-2.14567 -20.65433,-6.99409c-0.14272,-2.83071 0.39252,-11.15354 1.18031,-13.88976z" fill="#b55d3f"/><path d="M90.05335,230.86614c0.35827,-1.42126 0.87992,-2.79331 1.55413,-4.09252c1.49508,-2.88189 3.90748,-5.98228 7.13996,-6.81102c1.06398,-0.27362 6.19409,-1.51772 7.01417,-1.0748c-0.14941,0.91535 -0.28602,1.17913 0.30472,2.00394c1.08524,1.51575 2.48898,2.68307 4.09173,3.66142c4.27697,2.61024 8.96594,4.4252 13.87913,5.31496l0.7998,0.12598l0.16122,0.24409c-0.63839,0.73622 -1.19705,0.8189 -1.92244,1.42126l-1.32579,-0.29724c-7.6998,4.95276 -24.76339,-16.05512 -26.49016,-2.80118c-0.26476,2.03346 11.25945,10.28937 14.17795,12.22441c-0.8248,2.51378 -1.02441,3.27165 -2.71614,5.30118c-5.26831,-3.6378 -12.85295,-10.04724 -16.66831,-15.22047z" fill="#c17655"/><path d="M124.0372,229.86811l0.7998,0.12598l0.16122,0.24409c-0.63839,0.73622 -1.19705,0.8189 -1.92244,1.42126l-1.32579,-0.29724c0.52461,-0.65354 1.51457,-1.07874 2.2872,-1.49409z" fill="#c17655"/><path d="M237.05512,34.6187c9.3878,2.30787 15.33268,8.78445 18.83071,17.50846c4.43307,11.19291 4.66142,20.64035 3.79724,32.55531c-4.55906,-1.08169 -10.33661,-1.98957 -15.00197,-2.56654c0.03543,-2.39902 0.19882,-7.20138 -0.16732,-9.35748c-0.1752,-7.82677 -1.43307,-15.42933 -4.11614,-22.80827c-0.96457,-2.65551 -2.24803,-5.12185 -3.22244,-7.70591c-1.37008,-1.56024 -0.38976,-5.62008 -0.12008,-7.62559z" fill="#46767f"/><path d="M237.05512,34.6187c9.3878,2.30787 15.33268,8.78445 18.83071,17.50846c-0.09252,0.57047 -0.17126,0.74587 -0.64764,1.00866c-1.02362,-0.34705 -1.87598,-2.70571 -2.58268,-3.75591c-3.27756,-4.86181 -10.16142,-5.9687 -15.48031,-7.13563c-1.37008,-1.56024 -0.38976,-5.62008 -0.12008,-7.62559z" fill="#c5c9c3"/><path d="M26.24193,41.76929c6.41299,-0.15236 8.13071,6.8502 9.40512,11.75059l0.44685,1.85886l0.35787,2.41752c0.24134,1.25512 0.13445,2.59665 0.09685,3.86437c-0.17697,5.98543 -1.93898,11.08307 -5.35118,15.99744c-0.4439,0.63898 -2.17343,2.92598 -2.43228,3.41417c-1.02776,1.26614 -2.22303,1.58858 -2.61496,2.51929c-2.01043,-0.91339 -6.81709,-3.02087 -7.57185,-4.94724c-1.6412,-4.18917 -2.93138,-18.37343 -1.83016,-22.20118c0.15703,-0.69724 1.34734,-4.21358 1.65055,-4.96732c1.8672,-4.64272 3.30362,-7.59173 7.84319,-9.7065z" fill="#000000"/><path d="M32.1748,55.70276c0.8815,-0.4565 2.5811,-1.60197 3.47224,-2.18287l0.44685,1.85886l0.35787,2.41752c0.24134,1.25512 0.13445,2.59665 0.09685,3.86437c-0.17697,5.98543 -1.93898,11.08307 -5.35118,15.99744c-0.4439,0.63898 -2.17343,2.92598 -2.43228,3.41417c-1.02776,1.26614 -2.22303,1.58858 -2.61496,2.51929c-2.01043,-0.91339 -6.81709,-3.02087 -7.57185,-4.94724c-1.6412,-4.18917 -2.93138,-18.37343 -1.83016,-22.20118c-0.03295,1.46831 0.65774,4.23524 2.45545,4.27972c0.325,-0.17106 0.58533,-0.28169 0.85541,-0.53366c-0.87368,3.8874 0.46811,19.96575 7.46949,13.42776c3.19941,-2.9874 3.52067,-13.62047 3.19154,-18.2063l0.77835,0.73799c0.30276,-0.26575 0.3502,-0.4061 0.67638,-0.44587z" fill="#788585"/><path d="M32.1748,55.70276c0.8815,-0.4565 2.5811,-1.60197 3.47224,-2.18287l0.44685,1.85886l0.35787,2.41752c-0.03583,0.88307 0.11024,0.99862 -0.36063,1.60886c-1.16791,0.55571 -2.59547,0.57717 -3.4752,-0.49252c-0.11732,-1.0622 -0.28799,-2.14941 -0.44114,-3.20984z" fill="#c5c9c3"/><path d="M32.1748,55.70276c0.8815,-0.4565 2.5811,-1.60197 3.47224,-2.18287l0.44685,1.85886c-1.31575,-0.04016 -1.75846,0.48169 -2.86752,1.30689l-0.61043,2.22697c-0.11732,-1.0622 -0.28799,-2.14941 -0.44114,-3.20984z" fill="#b2ada9"/><path d="M26.24193,41.76929c6.41299,-0.15236 8.13071,6.8502 9.40512,11.75059c-0.89114,0.58091 -2.59075,1.72638 -3.47224,2.18287c-0.32618,0.03976 -0.37362,0.18012 -0.67638,0.44587l-0.77835,-0.73799l-0.01496,-0.11634c-1.2315,-5.15768 -3.30965,-9.54862 -7.9622,-3.13681c-2.13071,3.82835 -1.51634,4.62972 -2.68386,8.03169c-0.27008,0.25197 -0.53041,0.3626 -0.85541,0.53366c-1.79772,-0.04449 -2.48841,-2.81142 -2.45545,-4.27972c0.15703,-0.69724 1.34734,-4.21358 1.65055,-4.96732c1.8672,-4.64272 3.30362,-7.59173 7.84319,-9.7065z" fill="url(#color-3)"/><path d="M22.74291,52.15748c0.86594,-4.59173 4.6378,-2.90118 5.92717,-3.77106l-0.2128,-0.60531c2.31634,0.32618 1.48681,4.01929 2.26024,5.50413c0.35118,0.67421 0.18819,1.31634 -0.0124,2.00906c-1.2315,-5.15768 -3.30965,-9.54862 -7.9622,-3.13681z" fill="#555f61"/><path d="M25.70354,51.52579c4.33583,0.00906 1.38091,10.70453 1.69862,13.69154c0.33406,3.14173 -0.90394,6.22362 -3.33583,8.12874c-2.36791,-2.13681 -2.48858,-5.65098 -2.62835,-8.6248c-0.24685,-5.25295 0.58406,-9.26319 4.26555,-13.19547z" fill="#2e373a"/><path d="M245.69685,123.98878c2.95472,1.95866 15.7815,-7.96811 18.36417,-8.44114c-0.58465,2.56988 -2.07283,4.70709 -3.00984,7.10335c-5.3878,13.78327 -23.18898,29.25354 -37.92323,31.29547c0.89764,-6.30256 1.85039,-12.5502 2.44882,-18.89114c6.33071,-2.97185 13.60827,-4.96024 18.74213,-9.81083c0.20866,-0.19783 1.17913,-1.13268 1.37795,-1.25571z" fill="#874a33"/><path d="M203.69488,22.14409c7.84843,1.27421 15.65354,2.79488 23.40551,4.55965c2.21654,0.49331 3.54134,-0.40827 4.33465,1.71417c0.21654,0.5687 0.55118,1.35236 0.65157,1.93012c4.05315,1.38425 0.68307,13.13386 -0.27165,16.38898c-1.0689,-0.13268 -2.41339,-0.3561 -3.45866,-0.24567c-0.49409,0.84646 -0.51575,1.34862 -0.24409,2.27539l-0.61417,0.20276c-1.19291,-0.00709 -5.84843,-0.39902 -6.79134,-0.82402c0.98819,-1.01358 1.20866,-1.15079 2.57087,-1.10433c-1.75591,-1.06594 -17.15748,-3.40472 -20.66339,-4.21516c0.37598,-2.73976 1.67323,-5.76929 2.20669,-8.51142c0.34252,-1.75492 0.30906,-4.20768 0.47441,-6.07697l-0.23622,-1.04744c-0.24409,-1.96988 -0.92913,-3.20886 -1.36417,-5.04606z" fill="#46767f"/><path d="M203.69488,22.14409c7.84843,1.27421 15.65354,2.79488 23.40551,4.55965c2.21654,0.49331 3.54134,-0.40827 4.33465,1.71417l-0.74606,-0.51004c-2.10433,0.27579 -3.16535,1.6311 -3.87795,3.51614c-3.90945,-0.61102 -7.72638,-1.30059 -11.65945,-1.82106c-3.17126,-0.41969 -6.77165,-0.69331 -9.8563,-1.36535l-0.23622,-1.04744c-0.24409,-1.96988 -0.92913,-3.20886 -1.36417,-5.04606z" fill="#c5c9c3"/><path d="M203.69488,22.14409c7.84843,1.27421 15.65354,2.79488 23.40551,4.55965c2.21654,0.49331 3.54134,-0.40827 4.33465,1.71417l-0.74606,-0.51004c-2.66929,-0.5439 -7.01969,-0.63957 -9.80512,-1.02047c-2.44291,-0.33386 -13.89173,-2.53602 -15.54528,-1.47402c-0.36811,0.53937 -0.27559,1.09252 -0.27953,1.77677c-0.24409,-1.96988 -0.92913,-3.20886 -1.36417,-5.04606z" fill="#46767f"/><path d="M230.68898,27.90787l0.74606,0.51004c0.21654,0.5687 0.55118,1.35236 0.65157,1.93012c4.05315,1.38425 0.68307,13.13386 -0.27165,16.38898c-1.0689,-0.13268 -2.41339,-0.3561 -3.45866,-0.24567c0.45079,-0.32067 0.55709,-0.44035 0.94094,-0.84528c0.0748,-0.70157 0.1437,-0.38071 -0.18898,-0.97638c-0.37795,-0.02402 -0.75591,-0.04311 -1.13583,-0.05689c-0.66535,-1.15059 0.91339,-9.71063 -0.07677,-11.69252c-0.39764,-0.79311 -0.49016,-0.88425 -1.08465,-1.49626c0.7126,-1.88504 1.77362,-3.24035 3.87795,-3.51614z" fill="#b6cbca"/><path d="M232.08661,30.34803c4.05315,1.38425 0.68307,13.13386 -0.27165,16.38898c-1.0689,-0.13268 -2.41339,-0.3561 -3.45866,-0.24567c0.45079,-0.32067 0.55709,-0.44035 0.94094,-0.84528c0.0748,-0.70157 0.1437,-0.38071 -0.18898,-0.97638c1.61811,-1.36476 2.87402,-11.81161 2.97835,-14.32165z" fill="url(#color-4)"/><path d="M62.13563,46.50886c-1.84488,-4.15945 -4.1872,-8.17677 -7.91398,-10.85335c-0.36811,-0.26437 -1.13878,-0.77992 -1.35591,-1.13051c1.47894,-1.23209 5.46949,-1.3128 7.3811,-1.2187c2.28307,0.11201 4.5376,1.52539 5.89331,3.33484c6.13366,8.18563 6.53287,19.39941 5.41142,29.17579c-1.02323,8.92126 -2.62756,17.71004 -8.07283,25.10079c-4.82539,6.4624 -10.76654,8.31713 -15.98051,1.2439c-0.2311,-0.3124 -0.45846,-0.62756 -0.68169,-0.94567c6.70295,-0.1435 9.58189,-4.75728 12.35098,-10.27697c0.27776,-0.55374 0.80472,-1.77382 1.10965,-2.21949c4.05669,-10.75335 4.78563,-20.96102 1.85846,-32.21063z" fill="#285057"/><path d="M62.13563,46.50886c0.33425,-0.01417 0.19173,-0.06516 0.43504,0.1313l0.96457,-0.07638l0.10236,-0.62224c0.49469,1.34232 1.12539,2.57126 1.49705,3.94213c1.89055,6.97343 0.42618,13.85217 -0.16969,20.87815c-0.15984,1.88406 0.07362,4.71083 -0.24646,6.5878c-0.07165,0.42028 -2.87343,1.14469 -3.38228,1.4376c-0.2502,0.1439 -0.74035,0.05157 -1.05906,-0.06772c4.05669,-10.75335 4.78563,-20.96102 1.85846,-32.21063z" fill="#46767f"/><path d="M65.23957,110.08484c6.11378,-2.25472 11.52126,-8.53937 14.23661,-14.36378c1.19114,-2.55472 2.09154,-5.19921 3.30827,-7.7378c0.3622,0.29409 1.04291,0.81043 1.48937,0.89213c4.58661,0.83976 17.63524,1.92579 21.59528,0.14331c-1.79547,7.51535 -6.59685,15.29134 -12.38386,20.40256c-3.12205,2.75748 -5.13268,2.64193 -9.09311,2.14016c-1.42894,-0.18091 -3.13406,-0.28228 -4.58386,-0.40118c-4.85276,-0.40551 -9.70906,-0.76398 -14.5687,-1.07539z" fill="#874a33"/><path d="M105.55177,145.74902c1.36122,0.22303 2.54055,0.39587 3.91378,0.53957c2.62598,0.24843 4.14272,0.25945 6.04272,2.22835c-0.50256,3.02992 -1.46594,7.07815 -2.09232,10.18248c-0.88819,4.40177 -1.52874,12.45315 -3.34764,16.1498c0.86378,1.55866 1.07795,1.82992 1.31713,3.50807c0.3124,2.19311 -2.37028,3.6876 -4.16969,3.27244c-4.38406,-1.01142 -9.00571,-2.08268 -13.41102,-3.00177c-4.13366,-1.28957 -4.32264,-4.63583 -3.3122,-8.21516c0.20335,-0.59311 0.21535,-0.69409 0.58012,-1.18878c1.39429,-2.00177 2.57835,-4.37953 3.67165,-6.57303c1.26161,-1.71299 1.74961,-1.46654 3.34469,-0.30531l0.7872,2.80591c0.0311,0.10807 0.00827,0.2687 -0.00197,0.38091l0.18031,0.06693c0.18268,1.22421 -2.53406,4.4128 -1.97874,5.44843c2.35138,-1.26004 2.50551,-3.71417 3.75374,-4.35886c2.14547,-4.32146 4.63858,-16.1561 4.72224,-20.93996z" fill="#874a33"/><path d="M105.55177,145.74902c1.36122,0.22303 2.54055,0.39587 3.91378,0.53957c-0.97126,5.61457 -3.62441,20.59469 -6.08465,25.14134c-1.07461,1.96673 -2.5872,3.66004 -4.42087,4.94862c-1.77264,1.25827 -3.09587,1.6628 -5.15531,2.24941c-4.13366,-1.28957 -4.32264,-4.63583 -3.3122,-8.21516c0.20335,-0.59311 0.21535,-0.69409 0.58012,-1.18878c1.39429,-2.00177 2.57835,-4.37953 3.67165,-6.57303c1.26161,-1.71299 1.74961,-1.46654 3.34469,-0.30531l0.7872,2.80591c0.0311,0.10807 0.00827,0.2687 -0.00197,0.38091l0.18031,0.06693c0.18268,1.22421 -2.53406,4.4128 -1.97874,5.44843c2.35138,-1.26004 2.50551,-3.71417 3.75374,-4.35886c2.14547,-4.32146 4.63858,-16.1561 4.72224,-20.93996z" fill="#b55d3f"/><path d="M94.74429,162.65098c1.26161,-1.71299 1.74961,-1.46654 3.34469,-0.30531l0.7872,2.80591c0.0311,0.10807 0.00827,0.2687 -0.00197,0.38091c-1.9,4.18228 -2.95276,5.7437 -7.80157,3.69154c1.39429,-2.00177 2.57835,-4.37953 3.67165,-6.57303z" fill="#dd9876"/><path d="M98.87421,165.53248l0.18031,0.06693c0.18268,1.22421 -2.53406,4.4128 -1.97874,5.44843c2.35138,-1.26004 2.50551,-3.71417 3.75374,-4.35886c-1.175,2.56004 -2.58071,4.82087 -5.31161,5.85433c-1.39232,-0.42677 -3.76358,-1.39134 -5.02539,-2.13051c0.20335,-0.59311 0.21535,-0.69409 0.58012,-1.18878c4.84882,2.05217 5.90157,0.49075 7.80157,-3.69154z" fill="#0f0000"/><path d="M71.53307,80.43031c0.09055,2.38091 6.54134,6.52657 8.66339,7.57815c-0.33327,0.41831 -1.82087,4.37106 -2.14232,5.22559c-2.24508,5.96752 -7.7002,12.71693 -13.50394,15.4811c-8.5752,4.08445 -18.71516,-5.97717 -22.11909,-13.21811c-0.77559,-1.6502 -1.12717,-3.79232 -1.99114,-5.6124l-0.11752,-0.2437c1.38858,0.76909 2.64449,1.10197 4.16772,1.49705c2.47953,2.77697 3.06831,5.97736 7.19409,7.37638c10.71142,3.63209 16.92913,-10.51594 19.84882,-18.08406z" fill="#874a33"/><path d="M260.18898,93.30413c2.76772,-3.62362 2.06102,-21.60197 1.58858,-26.4563c7.16535,16.00276 8.19882,32.22697 2.28346,48.6998c-2.58268,0.47303 -15.40945,10.3998 -18.36417,8.44114c3.74213,-4.74587 6.09449,-11.3498 7.54134,-17.12776c0.49606,-1.97815 1.20669,-4.98681 1.87008,-6.81417c0.65551,-1.80433 3.25787,-3.6622 4.40354,-5.73465l0.1063,-0.19311c-0.04134,-0.2622 0.02165,-0.30354 0.11417,-0.59941z" fill="#b55d3f"/><path d="M244.51378,72.75846c0.36614,2.1561 0.20276,6.95846 0.16732,9.35748c4.66535,0.57697 10.44291,1.48484 15.00197,2.56654c-0.21654,2.91122 -0.66339,5.00768 -1.43504,7.80492c0.65748,0.26614 1.29528,0.52244 1.94094,0.81673l-0.45669,0.21555c-0.09252,0.29587 -0.15551,0.3372 -0.11417,0.59941c-0.71063,-0.6372 -0.8937,-1.06811 -1.61811,-1.0502c-2.02362,1.40138 -5.24409,6.38287 -5.90157,8.84429l-0.25394,-0.38209c-1.34252,0.14252 -3.56299,3.33012 -4.76378,4.44606c-3.73622,3.47126 -7.40945,7.1622 -11.76181,9.86909c-0.19488,0.12165 -0.90748,0.08268 -1.1437,0.06772c5.29134,-7.90413 9.04134,-20.9061 10.16142,-30.34941c0.35433,-2.97933 0.15157,-9.50236 0.17717,-12.8061z" fill="#285057"/><path d="M88.19173,246.28937c0.6128,1 1.12047,1.78543 1.88465,2.6811c3.65177,4.35039 8.90295,7.04528 14.56673,7.47638c-0.02224,2.30512 0.1187,5.30906 0.55059,7.5689c-0.50236,-1.05906 -1.00551,-2.31496 -1.47402,-3.40551c-0.1622,3.15945 0.78937,9.43701 1.88976,12.38976c-2.73543,-2.07874 -5.1189,-3.49213 -7.86791,-5.80906c-7.29488,-6.14961 -8.85571,-11.7815 -9.5498,-20.90157z" fill="#285057"/><path d="M222.7874,136.22697l0.35039,0.05846c0.09646,0.6128 -0.10827,1.55689 -0.26575,2.20709c-1.81102,7.42047 -0.72244,18.77736 -8.00787,23.27421c-0.86024,0.53012 -4.54331,0.42815 -5.62598,0.42677l-0.29134,-0.08366c0.01575,-0.47185 0.86024,-1.80177 1.1752,-2.28346c3.51772,-5.36555 3.7815,-12.06713 5.72835,-18.05098c0.98819,-3.03386 4.24409,-4.34764 6.93701,-5.54843z" fill="#874a33"/><path d="M106.94252,218.80709c1.92303,-0.90354 2.25886,-1.15551 3.54409,-2.83268c7.06772,3.59055 11.73406,5.47835 19.57382,6.96654c-1.12264,1.0315 -1.31319,2.35433 -1.56969,3.80512c0.33287,0.84449 0.25807,1.03346 0.9065,1.56693l0.9939,0.19291c-0.27283,0.02756 -1.60709,0.18307 -1.77382,0.15354c-8.01142,-1.47047 -15.91043,-3.81496 -21.6748,-9.85236z" fill="#285057"/><path d="M99.25059,144.1813c1.5437,0.4187 3.09783,0.79803 4.66083,1.1378c-0.5876,4.11929 -0.62382,6.21417 -1.67992,10.41476c-0.91594,3.6435 -2.25197,6.62598 -3.17697,9.86555l-0.18031,-0.06693c0.01024,-0.1122 0.03307,-0.27283 0.00197,-0.38091l-0.7872,-2.80591c-1.59508,-1.16122 -2.08307,-1.40768 -3.34469,0.30531c2.31949,-6.55866 3.89646,-11.32461 4.5063,-18.46969z" fill="#c17655"/><path d="M235.32677,43.81161c0.67323,1.75453 2.2126,4.72244 2.55118,6.15827l-3.08661,-0.01339l-0.23819,-0.38386c0.34843,-2.025 0.66142,-3.71063 0.77362,-5.76102z" fill="#788585"/><path d="M27.13937,40.84173c1.23622,-0.75197 4.51024,-1.23425 5.98091,-1.38307c-0.85394,0.96201 -1.78878,1.3878 -2.50374,2.23425c-1.04783,-0.33701 -2.35039,-0.54449 -3.47717,-0.85118z" fill="#555f61"/><path d="M104.24173,28.70512c0.93898,1.15335 1.54075,2.26083 2.20669,3.59134c-0.28858,0.46122 -0.38681,0.66437 -0.79311,1.04449c-0.40591,-0.38287 -0.79783,-0.87776 -1.16102,-1.30906c0.1065,-0.33268 0.09409,-0.575 0.11811,-0.92717c-0.03937,-0.86083 -0.20394,-1.55925 -0.37067,-2.39961z" fill="#e3ac84"/><path d="M71.19862,13.00606l0.23957,-0.015c3.07579,-0.21203 2.31988,-1.02291 6.05669,-0.64094l-0.01673,0.12016c-1.31732,0.2002 -2.22953,0.28516 -3.56122,0.35717c1.86654,0.63598 6.04744,-0.32703 8.67972,0.69585l-0.39252,0.13002l0.10906,-0.0698l-0.11181,0.14451l0.32067,0.28177c-3.00039,-0.13163 -8.5813,-0.42126 -11.32343,-1.00372z" fill-opacity="0.01176" fill="#b2ada9"/></g></svg></svg>